<svg version="1.1" xmlns="http://www.w3.org/2000/svg" xmlns:xlink="http://www.w3.org/1999/xlink" width="175" height="185" viewBox="0 0 175 185"><path stroke="none" fill="black" fill-rule="evenodd" d="M65.11807708104735,158.99487663495563C61.40422711068506,158.99921888594227 60.23407835981573,158.46764456192776 57.44301458849016,155.50825482450693C55.63178782300767,153.58779497798574 53.1682945785798,149.42529497798574 51.96858515642822,146.25825482450693C50.768875734276634,143.09121467102813 48.897343769159875,136.225 47.80962523394653,131.0C46.306847345720726,123.78120744311882 45.912163003538595,118.61847480869201 46.16597758496113,109.5C46.45301318267268,99.18803583993675 46.81305182741674,96.9966425466814 48.72543967380555,93.92170545380748C49.94943149439861,91.9536434534016 52.10810535390523,89.81614345340161 53.52249269493137,89.1717054538075C54.93688003595752,88.52726745421339 58.12027914984292,88.00000000000003 60.59671294801004,88.00000000000003C63.073146746177144,88.00000000000001 66.34829079880224,88.64586797685524 67.87481084273247,89.4352621707894C69.40133088666269,90.22465636472356 72.29296768597916,92.68875908136718 74.30067039676906,94.91104598555299C76.30837310755896,97.1333328897388 80.23216908869816,103.57496491288356 83.02021702152283,109.22578381476359C87.67704670051558,118.66425180631913 88.03891103164835,119.13395096971308 87.46877269402694,115.0C87.12743038107953,112.525 85.54916680350489,103.9390705686856 83.96152029941662,95.92015681930133C82.37387379532835,87.90124306991704 79.9062239918258,77.64083021633806 78.47785406941095,73.1192393669036C76.9302996399902,68.22036279630156 74.72212649429763,63.60539187189837 73.0135328372593,61.69908254760227C70.165622397273,58.52161656314071 70.08493970166313,58.50091219812604 61.07312391384004,58.6349981995738C52.80343588420206,58.75804214845399 52.0,58.603077572779135 52.0,56.8849981995738C52.0,55.29924831508274 52.83345101047822,54.97305928258433 57.25,54.830297444415955C60.1375,54.73696103884473 64.52316823697156,54.78512137953146 66.99592941549236,54.9373204237198C69.46869059401314,55.08951946790813 72.70377052687017,56.077003202727674 74.18499593295242,57.13172872331878C75.66622133903466,58.186454243909886 78.06168690117099,61.55123891153943 79.50825273769979,64.60902798471778C80.95481857422861,67.66681705789613 83.61135601320984,76.5431994730894 85.4116692687692,84.33432224070285C87.21198252432858,92.12544500831628 89.75408435434527,104.9125 91.06078444658408,112.75C92.36748453882291,120.5875 93.67914394204135,127.0 93.97558312040285,127.0C94.27202229876434,127.0 95.73770823565854,124.975 97.23266298016773,122.5C98.72761772467692,120.025 100.38528330215149,118.0 100.91636426344455,118.0C101.4474452247376,118.0 102.17769739392571,118.47850342870913 102.53914686164033,119.06334095268696C102.90059632935495,119.64817847666478 101.12715397682368,123.68784000261151 98.59816385601528,128.0403665659019C96.06917373520687,132.3928931291923 94.0,136.86438970048317 94.0,137.97702561321495C94.0,139.33333333333334 93.34090449091039,140.0 92.0,140.0C90.9,140.0 90.0,140.35780396359633 90.0,140.79511991910297C90.0,141.23243587460962 87.14009674726897,144.44424903812967 83.64465943837547,147.9324825047031C80.14922212948198,151.42071597127656 75.53672212948199,155.33560649341027 73.39465943837547,156.6322392205558C70.88100192158635,158.1538056129103 67.94621999251338,158.99156995685996 65.11807708104735,158.99487663495563zM66.3638626796016,155.4045638434734C67.53873820582072,155.04269999147732 69.69884969749215,154.13706869691217 71.16411043887145,153.39204985555085C72.62937118025074,152.6470310141895 76.01825726698442,149.8915393615882 78.69496840939073,147.26873507199238C81.37167955179702,144.64593078239656 84.83415399211484,140.81851236046043 86.38935605454142,138.76336080102317L89.2169961680443,135.02672160204634L85.47916405466333,125.26336080102317C83.4233563923038,119.89351236046042 79.99418256383403,112.09860266125851 77.85877776917495,107.94133924724115C75.72337297451587,103.78407583322378 72.26844567912089,98.71507796008241 70.18116155718609,96.67689952914922C68.09387743525129,94.63872109821604 65.0617271259111,92.60147531852 63.44304975865232,92.14968668538026C61.824372391393545,91.69789805224053 59.039840927745146,91.71665570051611 57.25520206165587,92.1913703482149C55.4705631955666,92.66608499591369 53.321337763820026,94.10613607998047 52.47914554666349,95.39148386836331C51.636953329506944,96.67683165674613 50.46040775021093,100.49594408415896 49.864599814894575,103.87840037372516C49.08472694818096,108.30581015919039 49.08771933068728,112.61515641434481 49.87528358838895,119.26416045010457C50.47696759912723,124.34387220254706 51.6603171628118,131.2 52.5049492854658,134.5C53.34958140811979,137.8 54.98621403798891,142.86853741091693 56.14191068517495,145.7634164687043C57.297607332361,148.65829552649166 59.589700626048,152.15985760345336 61.23545133781274,153.54466552861922C63.32773213081533,155.30520374568331 64.8702163575282,155.86460969476846 66.3638626796016,155.4045638434734z"/></svg>