<?xml version="1.0" standalone="no"?>
<!DOCTYPE svg PUBLIC "-//W3C//DTD SVG 20010904//EN"
 "http://www.w3.org/TR/2001/REC-SVG-20010904/DTD/svg10.dtd">
<svg version="1.0" xmlns="http://www.w3.org/2000/svg"
 width="56.286687pt" height="104.415928pt" viewBox="0 0 56.286687 104.415928"
 preserveAspectRatio="xMidYMid meet">
<metadata>
Created by potrace 1.12, written by Peter Selinger 2001-2015
</metadata>
<g transform="translate(-46.127197,130.421025) scale(0.100000,-0.100000)"
fill="#000000" stroke="none">
<path d="M573 1302 c-44 -2 -53 -6 -53 -21 0 -17 9 -19 91 -17 90 1 91 1 119
-31 36 -40 72 -152 110 -342 49 -250 49 -252 -10 -133 -77 157 -136 212 -224
212 -60 0 -92 -16 -119 -59 -19 -31 -22 -53 -25 -156 -6 -188 43 -386 112
-460 28 -30 40 -35 77 -35 28 0 58 8 83 24 40 24 166 144 166 158 0 4 9 8 20
8 13 0 20 7 20 20 0 11 21 56 46 100 42 72 49 100 23 100 -5 0 -22 -20 -37
-45 -15 -25 -29 -45 -32 -45 -3 0 -16 64 -29 143 -35 204 -85 417 -116 481
-41 87 -87 107 -222 98z m129 -419 c44 -43 100 -147 153 -286 l37 -97 -28 -38
c-49 -65 -127 -134 -173 -155 -43 -19 -44 -19 -70 0 -76 56 -149 354 -122 504
13 76 32 106 74 117 45 12 85 -2 129 -45z"/>
</g>
</svg>
