<svg  width="567" height="600" xmlns="http://www.w3.org/2000/svg" ><path  d="
 M 202 175 C 223 170, 242, 178, 252, 196
 C 281 261, 291, 334, 302, 405
 C 315 403, 314, 373, 333, 385
 C 329 411, 305, 425, 306, 452
 C 272 469, 255, 514, 214, 517
 C 183 520, 171, 488, 163, 468
 C 149 419, 138, 365, 149, 316
 C 157 284, 189, 278, 216, 286
 C 250 288, 273, 382, 280, 355
 C 266 299, 260, 248, 239, 204
 C 222 187, 115, 189, 207, 170" fill="rgb(186,186,186)" />
<path  d="
 M 212 171 C 115 188, 222, 185, 238, 199
 C 261 248, 267, 299, 278, 348
 C 271 386, 251, 288, 218, 292
 C 190 279, 157, 284, 151, 315
 C 139 365, 150, 419, 163, 465
 C 172 488, 183, 519, 213, 516
 C 255 512, 271, 469, 303, 452
 C 304 425, 328, 411, 332, 388
 C 313 376, 316, 405, 301, 407
 C 290 334, 280, 261, 253, 197
 C 241 181, 225, 171, 205, 176" fill="rgb(185,185,185)" />
<path  d="
 M 185 300 C 210 292, 226, 311, 239, 328
 C 260 361, 270, 395, 284, 429
 C 276 459, 250, 484, 223, 500
 C 175 502, 175, 444, 165, 415
 C 166 374, 147, 321, 183, 297" fill="rgb(248,248,248)" />
<path  d="
 M 186 297 C 147 318, 167, 375, 163, 411
 C 176 443, 176, 501, 221, 502
 C 249 483, 275, 459, 286, 431
 C 269 395, 259, 361, 239, 330
 C 225 313, 212, 294, 188, 300" fill="rgb(250,250,250)" /></svg>